<svg width="71" height="21" viewBox="0 0 71 21" fill="none" xmlns="http://www.w3.org/2000/svg">
<path d="M0 15.5164V5.33459H4.01705C4.7893 5.33459 5.44721 5.48209 5.99077 5.77707C6.53433 6.06873 6.94863 6.47475 7.23366 6.99511C7.52202 7.51215 7.66619 8.10874 7.66619 8.78488C7.66619 9.46102 7.52036 10.0576 7.22869 10.5747C6.93703 11.0917 6.51444 11.4944 5.96094 11.7827C5.41075 12.0711 4.74455 12.2153 3.96236 12.2153H1.40199V10.4901H3.61435C4.02865 10.4901 4.37003 10.4189 4.63849 10.2764C4.91027 10.1305 5.11245 9.93 5.24503 9.67479C5.38092 9.41627 5.44886 9.11963 5.44886 8.78488C5.44886 8.44681 5.38092 8.15183 5.24503 7.89994C5.11245 7.64473 4.91027 7.44752 4.63849 7.30832C4.36671 7.1658 4.02202 7.09454 3.6044 7.09454H2.1527V15.5164H0Z" fill="white"/>
<path d="M12.3519 15.6656C11.5797 15.6656 10.9118 15.5015 10.3484 15.1734C9.78823 14.8419 9.35571 14.3812 9.05078 13.7913C8.74586 13.198 8.5934 12.5103 8.5934 11.7281C8.5934 10.9392 8.74586 10.2498 9.05078 9.65988C9.35571 9.0666 9.78823 8.6059 10.3484 8.27778C10.9118 7.94634 11.5797 7.78062 12.3519 7.78062C13.1242 7.78062 13.7904 7.94634 14.3505 8.27778C14.9139 8.6059 15.3481 9.0666 15.6531 9.65988C15.958 10.2498 16.1104 10.9392 16.1104 11.7281C16.1104 12.5103 15.958 13.198 15.6531 13.7913C15.3481 14.3812 14.9139 14.8419 14.3505 15.1734C13.7904 15.5015 13.1242 15.6656 12.3519 15.6656ZM12.3619 14.0249C12.7132 14.0249 13.0065 13.9255 13.2418 13.7266C13.4772 13.5245 13.6545 13.2494 13.7738 12.9014C13.8964 12.5533 13.9577 12.1573 13.9577 11.7131C13.9577 11.269 13.8964 10.8729 13.7738 10.5249C13.6545 10.1769 13.4772 9.90183 13.2418 9.69965C13.0065 9.49747 12.7132 9.39638 12.3619 9.39638C12.0072 9.39638 11.7089 9.49747 11.467 9.69965C11.2283 9.90183 11.0477 10.1769 10.9251 10.5249C10.8058 10.8729 10.7461 11.269 10.7461 11.7131C10.7461 12.1573 10.8058 12.5533 10.9251 12.9014C11.0477 13.2494 11.2283 13.5245 11.467 13.7266C11.7089 13.9255 12.0072 14.0249 12.3619 14.0249Z" fill="white"/>
<path d="M17.4876 15.5164V7.88005H19.5408V9.21244H19.6204C19.7596 8.73848 19.9933 8.38052 20.3214 8.13857C20.6495 7.89331 21.0273 7.77067 21.4549 7.77067C21.561 7.77067 21.6753 7.7773 21.7979 7.79056C21.9206 7.80382 22.0283 7.82205 22.1211 7.84525V9.72451C22.0217 9.69468 21.8841 9.66816 21.7085 9.64496C21.5328 9.62176 21.372 9.61016 21.2262 9.61016C20.9147 9.61016 20.6362 9.67811 20.391 9.814C20.149 9.94657 19.9568 10.1322 19.8143 10.3708C19.6751 10.6095 19.6055 10.8845 19.6055 11.1961V15.5164H17.4876Z" fill="white"/>
<path d="M25.334 11.1016V15.5164H23.2161V7.88005H25.2346V9.22735H25.324C25.4931 8.78322 25.7765 8.4319 26.1742 8.17337C26.5719 7.91154 27.0542 7.78062 27.6209 7.78062C28.1512 7.78062 28.6136 7.89662 29.008 8.12863C29.4024 8.36064 29.709 8.69208 29.9277 9.12295C30.1465 9.5505 30.2559 10.0609 30.2559 10.6542V15.5164H28.138V11.032C28.1413 10.5647 28.022 10.2001 27.78 9.93829C27.5381 9.67314 27.205 9.54056 26.7807 9.54056C26.4957 9.54056 26.2438 9.60188 26.025 9.72451C25.8096 9.84714 25.6406 10.0261 25.5179 10.2614C25.3986 10.4934 25.3373 10.7735 25.334 11.1016Z" fill="white"/>
<path d="M34.2559 3.30505C34.2559 1.6482 35.599 0.305054 37.2559 0.305054H67.0959C68.7527 0.305054 70.0959 1.6482 70.0959 3.30505V17.6951C70.0959 19.3519 68.7527 20.6951 67.0959 20.6951H37.2559C35.599 20.6951 34.2559 19.3519 34.2559 17.6951V3.30505Z" fill="#3D64FC"/>
<path d="M43.5685 14.9831C42.9321 14.9831 42.3653 14.8737 41.8682 14.655C41.3739 14.4334 40.9832 14.1294 40.6963 13.7431C40.4122 13.3539 40.2659 12.905 40.2574 12.3965H42.1153C42.1267 12.6095 42.1963 12.797 42.3241 12.959C42.4548 13.1181 42.6281 13.2416 42.844 13.3297C43.0599 13.4178 43.3028 13.4618 43.5727 13.4618C43.854 13.4618 44.1026 13.4121 44.3185 13.3127C44.5344 13.2132 44.7034 13.0755 44.8256 12.8993C44.9477 12.7232 45.0088 12.5201 45.0088 12.2899C45.0088 12.057 44.9435 11.851 44.8128 11.672C44.6849 11.4902 44.5003 11.3482 44.2588 11.2459C44.0202 11.1436 43.7361 11.0925 43.4065 11.0925H42.5926V9.73738H43.4065C43.6849 9.73738 43.9307 9.68909 44.1437 9.5925C44.3597 9.4959 44.5273 9.36238 44.6466 9.19193C44.7659 9.01863 44.8256 8.81693 44.8256 8.58681C44.8256 8.36806 44.773 8.1763 44.6679 8.01153C44.5656 7.84392 44.4207 7.71323 44.2332 7.61948C44.0486 7.52573 43.8327 7.47886 43.5855 7.47886C43.3355 7.47886 43.1068 7.52431 42.8994 7.61522C42.692 7.70329 42.5259 7.82971 42.4009 7.99448C42.2759 8.15926 42.2091 8.35244 42.2006 8.57403H40.4321C40.4406 8.07119 40.5841 7.62801 40.8625 7.24448C41.1409 6.86096 41.5159 6.56125 41.9875 6.34534C42.4619 6.12659 42.9974 6.01721 43.594 6.01721C44.1963 6.01721 44.7233 6.12659 45.175 6.34534C45.6267 6.56409 45.9776 6.85954 46.2276 7.2317C46.4804 7.60102 46.6054 8.01579 46.6026 8.47602C46.6054 8.96465 46.4534 9.37233 46.1466 9.69903C45.8426 10.0257 45.4463 10.2331 44.9577 10.3212V10.3894C45.5997 10.4718 46.0884 10.6948 46.4236 11.0584C46.7616 11.4192 46.9293 11.8709 46.9264 12.4135C46.9293 12.9107 46.7858 13.3524 46.496 13.7388C46.2091 14.1252 45.8128 14.4291 45.3071 14.6507C44.8014 14.8723 44.2219 14.9831 43.5685 14.9831Z" fill="white"/>
<path d="M51.3977 14.8638H48.3039V6.13653H51.4232C52.3011 6.13653 53.0567 6.31125 53.6903 6.66068C54.3238 7.00727 54.811 7.50585 55.1519 8.15642C55.4957 8.80698 55.6675 9.58539 55.6675 10.4916C55.6675 11.4007 55.4957 12.182 55.1519 12.8354C54.811 13.4888 54.3209 13.9902 53.6817 14.3397C53.0454 14.6891 52.284 14.8638 51.3977 14.8638ZM50.1491 13.2828H51.3209C51.8664 13.2828 52.3252 13.1862 52.6974 12.9931C53.0724 12.797 53.3536 12.4945 53.5411 12.0854C53.7315 11.6735 53.8266 11.1422 53.8266 10.4916C53.8266 9.84676 53.7315 9.31977 53.5411 8.91068C53.3536 8.50159 53.0738 8.20045 52.7016 8.00727C52.3295 7.81409 51.8707 7.7175 51.3252 7.7175H50.1491V13.2828Z" fill="white"/>
<path d="M58.3543 6.13653L60.1143 9.11096H60.1825L61.9509 6.13653H64.0347L61.3714 10.5002L64.0944 14.8638H61.9722L60.1825 11.8851H60.1143L58.3245 14.8638H56.2109L58.9424 10.5002L56.262 6.13653H58.3543Z" fill="white"/>
</svg>
