<svg width="71" height="21" viewBox="0 0 71 21" fill="none" xmlns="http://www.w3.org/2000/svg">
<path d="M0 15.2114V5.02954H4.01705C4.7893 5.02954 5.44721 5.17703 5.99077 5.47201C6.53433 5.76368 6.94863 6.16969 7.23366 6.69005C7.52202 7.2071 7.66619 7.80369 7.66619 8.47983C7.66619 9.15596 7.52036 9.75255 7.22869 10.2696C6.93703 10.7866 6.51444 11.1893 5.96094 11.4777C5.41075 11.766 4.74455 11.9102 3.96236 11.9102H1.40199V10.1851H3.61435C4.02865 10.1851 4.37003 10.1138 4.63849 9.9713C4.91027 9.82547 5.11245 9.62495 5.24503 9.36974C5.38092 9.11122 5.44886 8.81458 5.44886 8.47983C5.44886 8.14176 5.38092 7.84678 5.24503 7.59488C5.11245 7.33967 4.91027 7.14247 4.63849 7.00326C4.36671 6.86074 4.02202 6.78948 3.6044 6.78948H2.1527V15.2114H0Z" fill="#101828"/>
<path d="M12.3519 15.3605C11.5797 15.3605 10.9118 15.1964 10.3484 14.8683C9.78823 14.5369 9.35571 14.0762 9.05078 13.4862C8.74586 12.8929 8.5934 12.2052 8.5934 11.423C8.5934 10.6342 8.74586 9.94479 9.05078 9.35483C9.35571 8.76155 9.78823 8.30085 10.3484 7.97272C10.9118 7.64128 11.5797 7.47556 12.3519 7.47556C13.1242 7.47556 13.7904 7.64128 14.3505 7.97272C14.9139 8.30085 15.3481 8.76155 15.6531 9.35483C15.958 9.94479 16.1104 10.6342 16.1104 11.423C16.1104 12.2052 15.958 12.8929 15.6531 13.4862C15.3481 14.0762 14.9139 14.5369 14.3505 14.8683C13.7904 15.1964 13.1242 15.3605 12.3519 15.3605ZM12.3619 13.7199C12.7132 13.7199 13.0065 13.6205 13.2418 13.4216C13.4772 13.2194 13.6545 12.9443 13.7738 12.5963C13.8964 12.2483 13.9577 11.8522 13.9577 11.4081C13.9577 10.964 13.8964 10.5679 13.7738 10.2199C13.6545 9.87187 13.4772 9.59678 13.2418 9.3946C13.0065 9.19242 12.7132 9.09133 12.3619 9.09133C12.0072 9.09133 11.7089 9.19242 11.467 9.3946C11.2283 9.59678 11.0477 9.87187 10.9251 10.2199C10.8058 10.5679 10.7461 10.964 10.7461 11.4081C10.7461 11.8522 10.8058 12.2483 10.9251 12.5963C11.0477 12.9443 11.2283 13.2194 11.467 13.4216C11.7089 13.6205 12.0072 13.7199 12.3619 13.7199Z" fill="#101828"/>
<path d="M17.4876 15.2114V7.575H19.5408V8.90738H19.6204C19.7596 8.43342 19.9933 8.07547 20.3214 7.83352C20.6495 7.58825 21.0273 7.46562 21.4549 7.46562C21.561 7.46562 21.6753 7.47225 21.7979 7.48551C21.9206 7.49876 22.0283 7.51699 22.1211 7.54019V9.41946C22.0217 9.38963 21.8841 9.36311 21.7085 9.33991C21.5328 9.31671 21.372 9.30511 21.2262 9.30511C20.9147 9.30511 20.6362 9.37305 20.391 9.50894C20.149 9.64152 19.9568 9.82713 19.8143 10.0658C19.6751 10.3044 19.6055 10.5795 19.6055 10.891V15.2114H17.4876Z" fill="#101828"/>
<path d="M25.334 10.7966V15.2114H23.2161V7.575H25.2346V8.9223H25.324C25.4931 8.47817 25.7765 8.12684 26.1742 7.86832C26.5719 7.60648 27.0542 7.47556 27.6209 7.47556C28.1512 7.47556 28.6136 7.59157 29.008 7.82358C29.4024 8.05558 29.709 8.38702 29.9277 8.81789C30.1465 9.24545 30.2559 9.75587 30.2559 10.3491V15.2114H28.138V10.727C28.1413 10.2597 28.022 9.89507 27.78 9.63323C27.5381 9.36808 27.205 9.23551 26.7807 9.23551C26.4957 9.23551 26.2438 9.29682 26.025 9.41946C25.8096 9.54209 25.6406 9.72107 25.5179 9.95639C25.3986 10.1884 25.3373 10.4685 25.334 10.7966Z" fill="#101828"/>
<path d="M34.2559 3C34.2559 1.34314 35.599 0 37.2559 0H67.0959C68.7527 0 70.0959 1.34315 70.0959 3V17.39C70.0959 19.0469 68.7527 20.39 67.0959 20.39H37.2559C35.599 20.39 34.2559 19.0469 34.2559 17.39V3Z" fill="#3D64FC"/>
<path d="M43.5685 14.6781C42.9321 14.6781 42.3653 14.5687 41.8682 14.3499C41.3739 14.1284 40.9832 13.8244 40.6963 13.438C40.4122 13.0488 40.2659 12.5999 40.2574 12.0914H42.1153C42.1267 12.3045 42.1963 12.492 42.3241 12.6539C42.4548 12.813 42.6281 12.9366 42.844 13.0247C43.0599 13.1127 43.3028 13.1568 43.5727 13.1568C43.854 13.1568 44.1026 13.107 44.3185 13.0076C44.5344 12.9082 44.7034 12.7704 44.8256 12.5943C44.9477 12.4181 45.0088 12.215 45.0088 11.9849C45.0088 11.7519 44.9435 11.546 44.8128 11.367C44.6849 11.1852 44.5003 11.0431 44.2588 10.9409C44.0202 10.8386 43.7361 10.7874 43.4065 10.7874H42.5926V9.43233H43.4065C43.6849 9.43233 43.9307 9.38403 44.1437 9.28744C44.3597 9.19085 44.5273 9.05733 44.6466 8.88687C44.7659 8.71358 44.8256 8.51188 44.8256 8.28176C44.8256 8.06301 44.773 7.87125 44.6679 7.70648C44.5656 7.53886 44.4207 7.40818 44.2332 7.31443C44.0486 7.22068 43.8327 7.17381 43.5855 7.17381C43.3355 7.17381 43.1068 7.21926 42.8994 7.31017C42.692 7.39824 42.5259 7.52466 42.4009 7.68943C42.2759 7.8542 42.2091 8.04739 42.2006 8.26898H40.4321C40.4406 7.76614 40.5841 7.32295 40.8625 6.93943C41.1409 6.55591 41.5159 6.25619 41.9875 6.04028C42.4619 5.82153 42.9974 5.71216 43.594 5.71216C44.1963 5.71216 44.7233 5.82153 45.175 6.04028C45.6267 6.25903 45.9776 6.55449 46.2276 6.92665C46.4804 7.29597 46.6054 7.71074 46.6026 8.17097C46.6054 8.6596 46.4534 9.06727 46.1466 9.39398C45.8426 9.72068 45.4463 9.92807 44.9577 10.0161V10.0843C45.5997 10.1667 46.0884 10.3897 46.4236 10.7534C46.7616 11.1141 46.9293 11.5659 46.9264 12.1085C46.9293 12.6056 46.7858 13.0474 46.496 13.4337C46.2091 13.8201 45.8128 14.1241 45.3071 14.3457C44.8014 14.5673 44.2219 14.6781 43.5685 14.6781Z" fill="white"/>
<path d="M51.3977 14.5587H48.3039V5.83148H51.4232C52.3011 5.83148 53.0567 6.00619 53.6903 6.35562C54.3238 6.70221 54.811 7.20079 55.1519 7.85136C55.4957 8.50193 55.6675 9.28034 55.6675 10.1866C55.6675 11.0957 55.4957 11.8769 55.1519 12.5303C54.811 13.1837 54.3209 13.6852 53.6817 14.0346C53.0454 14.384 52.284 14.5587 51.3977 14.5587ZM50.1491 12.9778H51.3209C51.8664 12.9778 52.3252 12.8812 52.6974 12.688C53.0724 12.492 53.3536 12.1894 53.5411 11.7803C53.7315 11.3684 53.8266 10.8372 53.8266 10.1866C53.8266 9.5417 53.7315 9.01472 53.5411 8.60562C53.3536 8.19653 53.0738 7.8954 52.7016 7.70222C52.3295 7.50903 51.8707 7.41244 51.3252 7.41244H50.1491V12.9778Z" fill="white"/>
<path d="M58.3543 5.83148L60.1143 8.80591H60.1825L61.9509 5.83148H64.0347L61.3714 10.1951L64.0944 14.5587H61.9722L60.1825 11.5801H60.1143L58.3245 14.5587H56.2109L58.9424 10.1951L56.262 5.83148H58.3543Z" fill="white"/>
</svg>
